<svg width="30" height="40" xmlns="http://www.w3.org/2000/svg" xmlns:xlink="http://www.w3.org/1999/xlink">
 <defs>
  <linearGradient id="linearGradient3155">
   <stop stop-color="#ffffff" id="stop3157" offset="0"/>
   <stop stop-color="#1daa3f" id="stop3159" offset="1"/>
  </linearGradient>
  <linearGradient y2="0.958995" x2="0.965609" y1="-0.106261" x1="-0.066138" id="linearGradient2881" xlink:href="#linearGradient3155"/>
 </defs>
 <metadata>image/svg+xmlOpen Clip Art Libraryicon_host2008-05-26T15:30:16http://openclipart.org/detail/17065/icon_host-by-jean_victor_balinjean_victor_balinclip artclipartcomputercomputerhosthosticoniconimagemediapngpublic domainsvgsystemsystem</metadata>
 <g>
  <title>Layer 1</title>
  <g id="layer1">
   <g id="g2888">
    <path fill="#342c49" fill-rule="evenodd" stroke-width="1px" id="rect2170" d="m2.62434,26l24.75132,0c1.45388,0 2.62434,1.17046 2.62434,2.62434l0,5.75132c0,1.45388 -1.17046,2.62434 -2.62434,2.62434l-24.75132,0c-1.45388,0 -2.62434,-1.17046 -2.62434,-2.62434l0,-5.75132c0,-1.45388 1.17046,-2.62434 2.62434,-2.62434z"/>
    <path fill="#d4d4df" fill-rule="evenodd" stroke-width="1px" id="rect3145" d="m2.65079,27l24.698421,0c0.914539,0 1.650789,0.73625 1.650789,1.650789l0,5.698423c0,0.914539 -0.73625,1.650787 -1.650789,1.650787l-24.698421,0c-0.91454,0 -1.65079,-0.736248 -1.65079,-1.650787l0,-5.698423c0,-0.914539 0.73625,-1.650789 1.65079,-1.650789z"/>
    <path fill="#342c49" fill-rule="evenodd" stroke-width="1px" id="rect3149" d="m5.03175,7l19.9365,0c1.125589,0 2.03175,0.90616 2.03175,2.03175l0,15.936501c0,1.125589 -0.90616,2.03175 -2.03175,2.03175l-19.9365,0c-1.12559,0 -2.03175,-0.90616 -2.03175,-2.03175l0,-15.936501c0,-1.125589 0.90616,-2.03175 2.03175,-2.03175z"/>
    <path fill="#d4d4df" fill-rule="evenodd" stroke-width="1px" id="rect3147" d="m5.01587,8l19.968261,0c0.56279,0 1.015869,0.45308 1.015869,1.01587l0,15.968261c0,0.56279 -0.453079,1.015869 -1.015869,1.015869l-19.968261,0c-0.56279,0 -1.01587,-0.453079 -1.01587,-1.015869l0,-15.968261c0,-0.56279 0.45308,-1.01587 1.01587,-1.01587z"/>
    <path fill="#342c49" fill-rule="evenodd" stroke-width="1px" id="rect3151" d="m6,11l18,0l0,12l-18,0l0,-12z"/>
    <path fill="url(#linearGradient2881)" fill-rule="evenodd" stroke-width="1px" id="rect3153" d="m7,12l16,0l0,10l-16,0l0,-10z"/>
    <path fill="#9386b6" fill-rule="evenodd" stroke-width="1px" id="rect3163" d="m14.84656,29l11.30688,0c0.46899,0 0.84656,0.377569 0.84656,0.84656l0,1.306883c0,0.46899 -0.377569,0.846558 -0.84656,0.846558l-11.30688,0c-0.46899,0 -0.84656,-0.377567 -0.84656,-0.846558l0,-1.306883c0,-0.46899 0.37757,-0.84656 0.84656,-0.84656z"/>
    <path fill="#9386b6" fill-rule="evenodd" stroke-width="1px" id="rect3165" d="m14.5,33l12,0c0.277,0 0.5,0.223 0.5,0.5c0,0.277 -0.223,0.5 -0.5,0.5l-12,0c-0.277,0 -0.5,-0.223 -0.5,-0.5c0,-0.277 0.223,-0.5 0.5,-0.5z"/>
    <path fill="#13c000" fill-rule="evenodd" stroke-width="1px" id="rect3167" d="m3.5,29c0.277,0 0.5,0.223 0.5,0.5l0,1c0,0.277 -0.223,0.5 -0.5,0.5c-0.277,0 -0.5,-0.223 -0.5,-0.5l0,-1c0,-0.277 0.223,-0.5 0.5,-0.5z"/>
    <path fill="#c50000" fill-rule="evenodd" stroke-width="1px" id="rect3169" d="m5.5,29c0.277,0 0.5,0.223 0.5,0.5l0,1c0,0.277 -0.223,0.5 -0.5,0.5c-0.277,0 -0.5,-0.223 -0.5,-0.5l0,-1c0,-0.277 0.223,-0.5 0.5,-0.5z"/>
    <path fill="#9386b6" fill-rule="evenodd" stroke-width="1px" id="rect3171" d="m3.7619,32l1.4762,0c0.42209,0 0.7619,0.339809 0.7619,0.761909l0,0.476181c0,0.4221 -0.33981,0.761909 -0.7619,0.761909l-1.4762,0c-0.42209,0 -0.7619,-0.339809 -0.7619,-0.761909l0,-0.476181c0,-0.4221 0.33981,-0.761909 0.7619,-0.761909z"/>
   </g>
  </g>
 </g>
</svg>