<?xml version="1.0"?><svg width="640" height="480" xmlns="http://www.w3.org/2000/svg" xmlns:xlink="http://www.w3.org/1999/xlink">
 <defs>
  <linearGradient id="linearGradient9218">
   <stop stop-color="black" offset="0" id="stop9220"/>
   <stop stop-color="black" stop-opacity="0" offset="1" id="stop9222"/>
  </linearGradient>
  <linearGradient id="linearGradient4731">
   <stop stop-color="#00346a" offset="0" id="stop4733"/>
   <stop stop-color="#001730" offset="1" id="stop4735"/>
  </linearGradient>
  <linearGradient id="linearGradient3810">
   <stop stop-color="#fafafa" offset="0" id="stop3812"/>
   <stop stop-color="#bebebe" offset="1" id="stop3814"/>
  </linearGradient>
  <linearGradient id="linearGradient14227">
   <stop stop-color="black" offset="0" id="stop14229"/>
   <stop stop-color="white" stop-opacity="0" offset="1" id="stop14231"/>
  </linearGradient>
  <linearGradient id="linearGradient12389">
   <stop stop-color="#73b9ff" offset="0" id="stop12391"/>
   <stop stop-color="#0059b4" offset="1" id="stop12393"/>
  </linearGradient>
  <linearGradient id="linearGradient8841">
   <stop stop-color="#0076ed" offset="0" id="stop8843"/>
   <stop stop-color="#003469" offset="1" id="stop8845"/>
  </linearGradient>
  <linearGradient y2="-0.446345" y1="-0.446345" xlink:href="#linearGradient9218" x2="1.013101" x1="0.062773" id="linearGradient9226"/>
  <linearGradient y2="-0.092953" y1="-0.092953" xlink:href="#linearGradient9218" x2="1.075159" x1="-0.038672" id="linearGradient9228"/>
  <linearGradient y2="-149.264626" y1="-149.264626" xlink:href="#linearGradient9218" x2="0.449544" x1="0.372722" id="linearGradient9230"/>
  <linearGradient y2="-0.090997" y1="-0.090997" xlink:href="#linearGradient9218" x2="1.744941" x1="-0.03265" id="linearGradient9236"/>
  <linearGradient y2="-2.339009" y1="-2.339009" xlink:href="#linearGradient9218" x2="1.516242" x1="0.407474" id="linearGradient9246" gradientTransform="translate(-18.00978,40.83542)"/>
  <linearGradient y2="-13886.0864" y1="-13886.0864" xlink:href="#linearGradient9218" x2="0.644234" x1="0.567409" id="linearGradient9248" gradientTransform="translate(-18.00978,40.83542)"/>
  <linearGradient y2="-2.140672" y1="-2.140672" xlink:href="#linearGradient9218" x2="1.156921" x1="0.206622" id="linearGradient9250" gradientTransform="translate(-18.00978,40.83542)"/>
  <linearGradient y2="-4.073473" y1="-4.073473" xlink:href="#linearGradient9218" x2="5.753636" x1="3.976046" id="linearGradient9252" gradientTransform="translate(-18.00978,40.83542)"/>
  <radialGradient xlink:href="#linearGradient14227" r="200.37111" id="radialGradient9260" gradientUnits="userSpaceOnUse" gradientTransform="matrix(0.9101070165634155,-0.013239339925348759,0.004375990014523268,0.5292310118675232,-11.1968994140625,141.4438934326172)" fy="222.08624" fx="397.68201" cy="222.08624" cx="397.68201"/>
  <linearGradient y2="1.026582" y1="1.026582" xlink:href="#linearGradient12389" x2="-0.267945" x1="-1.132393" id="linearGradient9271" gradientTransform="matrix(0.997477,0,0,1.110643,539.1278,-8.853192)"/>
  <linearGradient y2="0.764847" y1="0.764847" xlink:href="#linearGradient3810" x2="-0.564048" x1="-1.566578" id="linearGradient9274" gradientTransform="matrix(0.997477,0,0,1.110643,539.1278,-8.85319)"/>
  <linearGradient y2="-1.083821" y1="-1.083821" xlink:href="#linearGradient4731" x2="0.711043" x1="-0.288941" id="linearGradient9277" gradientTransform="translate(33.92592,56.25852)"/>
  <linearGradient y2="-0.491141" y1="-0.491141" xlink:href="#linearGradient8841" x2="0.953961" x1="-0.046035" id="linearGradient9280" gradientTransform="translate(13.64762,25.19848)"/>
 </defs>
 <g>
  <title>Layer 1</title>
  <g id="layer1">
   <path fill="url(#radialGradient9260)" fill-rule="nonzero" stroke-width="0.910822" stroke-linejoin="bevel" stroke-miterlimit="4" stroke-dashoffset="0" id="path13339" d="m534.067444,237.538757c0,83.898773 -64.759216,126.212769 -170.18927,120.174194c-106.679962,-6.110168 -193.338074,-26.893066 -215.359222,-130.604919c-17.147156,-80.757156 85.772644,-131.392166 191.174469,-138.242615c94.01178,-6.110184 177.099182,26.585999 194.374023,148.67334z"/>
   <rect fill="url(#linearGradient9280)" fill-rule="nonzero" stroke-width="3.543307" stroke-linejoin="round" stroke-miterlimit="4" stroke-dashoffset="0" y="254.75067" x="103.59952" width="296.4205" id="rect1944" height="51.303547"/>
   <rect fill="url(#linearGradient9277)" fill-rule="nonzero" stroke-width="3.543307" stroke-linejoin="round" stroke-miterlimit="4" stroke-dashoffset="0" y="1165.154982" x="994.410222" width="117.41212" transform="matrix(0.402274, -0.915519, 0, 1, 0, 0)" id="rect1946" height="51.303547"/>
   <g id="g9312">
    <path fill="url(#linearGradient9274)" fill-rule="nonzero" stroke-width="3.543307" stroke-linejoin="round" stroke-miterlimit="4" stroke-dashoffset="0" id="path4749" d="m150.866364,147.135986l-47.34375,107.625l296.499969,0l47.34375,-107.625l-296.499969,0z"/>
    <g id="g9298">
     <g id="g9282">
      <path fill="none" fill-opacity="0.75" fill-rule="evenodd" stroke="url(#linearGradient9228)" stroke-width="3.543307" stroke-miterlimit="4" id="path7440" d="m151.312164,192.421082l40.194214,-18.130737"/>
      <path fill="none" fill-opacity="0.75" fill-rule="evenodd" stroke="url(#linearGradient9230)" stroke-width="3.543307" stroke-miterlimit="4" id="path7442" d="m186.352142,184.909088l92.505157,-0.088379"/>
     </g>
     <g id="g9294">
      <path fill="none" fill-opacity="0.75" fill-rule="evenodd" stroke="url(#linearGradient9226)" stroke-width="3.543307" stroke-miterlimit="4" id="path7444" d="m291.896362,178.955872l6.367432,-14.486145l92.165405,-0.016449l4.102295,-9.59967l22.574463,16.941956"/>
      <path fill="url(#linearGradient9236)" fill-rule="evenodd" stroke-width="3.543307" stroke-miterlimit="4" id="path7446" d="m382.515991,178.102264l-4.493408,10.252472l4.491577,-2.056458l0.001831,-8.196014z"/>
     </g>
     <g id="g9286">
      <path fill="none" fill-opacity="0.75" fill-rule="evenodd" stroke="url(#linearGradient9246)" stroke-width="3.543307" stroke-miterlimit="4" id="path9238" d="m133.302399,233.2565l40.381714,-18.161957"/>
      <path fill="none" fill-opacity="0.75" fill-rule="evenodd" stroke="url(#linearGradient9248)" stroke-width="3.543307" stroke-miterlimit="4" id="path9240" d="m168.342316,225.650757l92.505249,0.005371"/>
     </g>
     <g id="g9290">
      <path fill="none" fill-opacity="0.75" fill-rule="evenodd" stroke="url(#linearGradient9250)" stroke-width="3.543307" stroke-miterlimit="4" id="path9242" d="m273.886475,219.79129l6.367432,-14.486115l92.165527,-0.016479l4.102295,-9.59964l22.574463,16.941925"/>
      <path fill="url(#linearGradient9252)" fill-rule="evenodd" stroke-width="3.543307" stroke-miterlimit="4" id="path9244" d="m364.506226,218.937683l-4.493408,10.252472l4.491577,-1.837708l0.001831,-8.414764z"/>
     </g>
    </g>
    <path fill="url(#linearGradient9271)" fill-rule="nonzero" stroke-width="3.543307" stroke-linejoin="round" stroke-miterlimit="4" stroke-dashoffset="0" id="rect1948" d="m150.866364,147.135986l-47.34375,107.625l296.499969,0l47.34375,-107.625l-296.499969,0zm243.000092,5.1875l24.218628,18.0625l-40.03125,17.90625l4.46875,-10.1875l-92.1875,0l6.75,-15.40625l92.218872,0l4.5625,-10.375zm-203.062592,20.40625l-4.53125,10.375l92.187469,0l-6.78125,15.40625l-92.187469,0l-4.5,10.1875l-24.28125,-17.90625l40.09375,-18.0625zm185.093719,20.4375l24.218872,18.0625l-40.031372,17.90625l4.46875,-10.21875l-92.1875,0l6.78125,-15.40625l92.1875,0l4.5625,-10.34375zm-203.031219,20.40625l-4.5625,10.34375l92.1875,0l-6.75,15.4375l-92.21875,0l-4.46875,10.1875l-24.3125,-17.90625l40.125,-18.0625z"/>
   </g>
   <path fill="black" stroke-width="1.771654" stroke-linecap="square" stroke-linejoin="bevel" stroke-miterlimit="4" stroke-dashoffset="0" id="rect10242" d="m103.616364,253.917236l-0.90625,0.875l0,51.3125l0.90625,0.875l296.312531,0l0.875,-0.875l0,-51.3125l-0.875,-0.875l-296.312531,0zm0.875,1.78125l294.531281,0l0,49.5l-294.531281,0l0,-49.5zm45.78125,-109.46875l-0.25,0.53125l-47,107.125l1.625,0.71875l46.78125,-106.59375l295.000031,0.03125l-0.09375,50.375l-47.1875,107.03125l1.625,0.71875l47.28125,-107.25l0.0625,-0.1875l0,-0.1875l0.0625,-52.28125l-297.343781,-0.03125l-0.5625,0zm296.218781,0.34375l-47.59375,108.375l1.625,0.71875l47.59375,-108.375l-1.625,-0.71875z"/>
  </g>
 </g>
</svg>