<svg width="250" height="195" xmlns="http://www.w3.org/2000/svg">
 <metadata id="metadata7151">image/svg+xml</metadata>
 <g>
  <title>Layer 1</title>
  <g id="layer1">
   <path fill="#bdbdbd" fill-rule="evenodd" stroke="#7d7d7d" stroke-width="7.874645" stroke-miterlimit="10" d="m4.180481,64.156006l240.517029,1.072021l0.235962,66.914001l-0.177979,3.459961l-1.073975,4.755005l-2.015991,5.481018l-3.165039,4.820984l-5.273987,6.026978l-6.838989,5.782043l-8.598999,5.44696l-10.455017,5.212036l-13.875,5.44696l-13.289978,3.929016l-23.501038,4.387024l-18.422974,1.987l-11.528992,0.347961l-23.256042,-0.925964l-24.187988,-3.259033l-16.417969,-4.397949l-9.532043,-2.879028l-9.18396,-3.359985l-9.475037,-4.755005l-7.723999,-4.509033l-8.985962,-6.719971l-5.56604,-5.903992l-2.938965,-4.163025l-3.117981,-6.028015l-1.573059,-4.273987l-0.951965,-5.904968l0.375977,-67.989014zm0,0" id="path1212"/>
   <path fill="#bdbdbd" fill-rule="evenodd" stroke="#7d7d7d" stroke-width="7.874645" stroke-miterlimit="10" d="m244.998779,61.254089c0,31.565247 -53.980835,57.147949 -120.564392,57.147949c-66.583557,0 -120.564331,-25.582703 -120.564331,-57.147949c0,-31.554138 53.980774,-57.147949 120.564331,-57.147949c66.583557,0 120.564392,25.593811 120.564392,57.147949" id="path1214"/>
   <path fill="#ffffff" fill-rule="evenodd" stroke="#7d7d7d" stroke-width="2.624882" stroke-miterlimit="10" d="m44.014526,29.185974l16.623962,-7.32196l42.838013,20.459961l18.112976,-7.578979l-8.099976,18.940979l-46.671997,-0.256958l12.999023,-5.804016l-35.802002,-18.439026zm0,0" id="path1216"/>
   <path fill="#ffffff" fill-rule="evenodd" stroke="#7d7d7d" stroke-width="2.624882" stroke-miterlimit="10" d="m146.098511,75.908997l-20.674988,7.065979l8.099976,-20.704956l51.362976,0.758972l-19.393982,7.065002l37.507019,19.197998l-15.984985,7.578979l-40.916016,-20.961975zm0,0" id="path1218"/>
   <path fill="#ffffff" fill-rule="evenodd" stroke="#7d7d7d" stroke-width="2.624882" stroke-miterlimit="10" d="m126.921509,48.887024l37.713989,-19.197998l-19.817993,-6.820007l51.578979,-0.502991l9.588013,19.44397l-17.481995,-6.307007l-43.892029,21.208008l-17.688965,-7.823975zm0,0" id="path1220"/>
   <path fill="#ffffff" fill-rule="evenodd" stroke="#7d7d7d" stroke-width="2.624882" stroke-miterlimit="10" d="m82.378479,88.789978l14.27002,6.30603l-47.096008,-0.502991l-10.653015,-20.705017l19.601013,8.08197l43.272034,-21.720947l17.471985,8.337952l-36.866028,20.203003zm0,0" id="path1222"/>
  </g>
 </g>
</svg>