<svg width="350" height="165" xmlns="http://www.w3.org/2000/svg" xmlns:xlink="http://www.w3.org/1999/xlink">
 <defs>
  <linearGradient id="linearGradient9218">
   <stop id="stop9220" offset="0" stop-color="black"/>
   <stop id="stop9222" offset="1" stop-opacity="0" stop-color="black"/>
  </linearGradient>
  <linearGradient id="linearGradient4731">
   <stop id="stop4733" offset="0" stop-color="#00346a"/>
   <stop id="stop4735" offset="1" stop-color="#001730"/>
  </linearGradient>
  <linearGradient id="linearGradient3810">
   <stop id="stop3812" offset="0" stop-color="#fafafa"/>
   <stop id="stop3814" offset="1" stop-color="#bebebe"/>
  </linearGradient>
  <linearGradient id="linearGradient14227">
   <stop id="stop14229" offset="0" stop-color="black"/>
   <stop id="stop14231" offset="1" stop-opacity="0" stop-color="white"/>
  </linearGradient>
  <linearGradient id="linearGradient12389">
   <stop id="stop12391" offset="0" stop-color="#73b9ff"/>
   <stop id="stop12393" offset="1" stop-color="#0059b4"/>
  </linearGradient>
  <linearGradient id="linearGradient8841">
   <stop id="stop8843" offset="0" stop-color="#0076ed"/>
   <stop id="stop8845" offset="1" stop-color="#003469"/>
  </linearGradient>
  <linearGradient id="linearGradient9226" x1="0.062773" x2="1.013101" xlink:href="#linearGradient9218" y1="-0.446345" y2="-0.446345"/>
  <linearGradient id="linearGradient9228" x1="-0.038672" x2="1.075159" xlink:href="#linearGradient9218" y1="-0.092953" y2="-0.092953"/>
  <linearGradient id="linearGradient9230" x1="0.372722" x2="0.449544" xlink:href="#linearGradient9218" y1="-149.264626" y2="-149.264626"/>
  <linearGradient id="linearGradient9236" x1="-0.03265" x2="1.744941" xlink:href="#linearGradient9218" y1="-0.090997" y2="-0.090997"/>
  <linearGradient gradientTransform="translate(-18.00978,40.83542)" id="linearGradient9246" x1="0.407474" x2="1.516242" xlink:href="#linearGradient9218" y1="-2.339009" y2="-2.339009"/>
  <linearGradient gradientTransform="translate(-18.00978,40.83542)" id="linearGradient9248" x1="0.567409" x2="0.644234" xlink:href="#linearGradient9218" y1="-13886.0864" y2="-13886.0864"/>
  <linearGradient gradientTransform="translate(-18.00978,40.83542)" id="linearGradient9250" x1="0.206622" x2="1.156921" xlink:href="#linearGradient9218" y1="-2.140672" y2="-2.140672"/>
  <linearGradient gradientTransform="translate(-18.00978,40.83542)" id="linearGradient9252" x1="3.976046" x2="5.753636" xlink:href="#linearGradient9218" y1="-4.073473" y2="-4.073473"/>
  <radialGradient cx="397.68201" cy="222.08624" fx="397.68201" fy="222.08624" gradientTransform="matrix(0.9101070165634155,-0.013239339925348759,0.004375990014523268,0.5292310118675232,-11.1968994140625,141.4438934326172)" gradientUnits="userSpaceOnUse" id="radialGradient9260" r="200.37111" xlink:href="#linearGradient14227"/>
  <linearGradient gradientTransform="matrix(0.997477,0,0,1.110643,539.1278,-8.853192)" id="linearGradient9271" x1="-1.132393" x2="-0.267945" xlink:href="#linearGradient12389" y1="1.026582" y2="1.026582"/>
  <linearGradient gradientTransform="matrix(0.997477,0,0,1.110643,539.1278,-8.85319)" id="linearGradient9274" x1="-1.566578" x2="-0.564048" xlink:href="#linearGradient3810" y1="0.764847" y2="0.764847"/>
  <linearGradient gradientTransform="translate(33.92592,56.25852)" id="linearGradient9277" x1="-0.288941" x2="0.711043" xlink:href="#linearGradient4731" y1="-1.083821" y2="-1.083821"/>
  <linearGradient gradientTransform="translate(13.64762,25.19848)" id="linearGradient9280" x1="-0.046035" x2="0.953961" xlink:href="#linearGradient8841" y1="-0.491141" y2="-0.491141"/>
 </defs>
 <g>
  <title>Layer 1</title>
  <path d="m384.067444,56.538757c0,83.898773 -64.759216,126.212769 -170.18927,120.174194c-106.679962,-6.110168 -193.338074,-26.893066 -215.359222,-130.604919c-17.147156,-80.757156 85.772644,-131.392151 191.174469,-138.242615c94.01178,-6.110184 177.099182,26.586014 194.374023,148.67334z" id="path13339" stroke-dashoffset="0" stroke-miterlimit="4" stroke-linejoin="bevel" stroke-width="0.91082" fill-rule="nonzero" fill="url(#radialGradient9260)"/>
  <rect height="51.303547" id="rect1944" width="296.4205" x="2.59952" y="110.75067" stroke-dashoffset="0" stroke-miterlimit="4" stroke-linejoin="round" stroke-width="3.54331" fill-rule="nonzero" fill="url(#linearGradient9280)"/>
  <rect height="51.303547" id="rect1946" transform="matrix(0.402274,-0.915519,0,1,0,0) " width="117.41212" x="743.33757" y="791.293199" stroke-dashoffset="0" stroke-miterlimit="4" stroke-linejoin="round" stroke-width="3.54331" fill-rule="nonzero" fill="url(#linearGradient9277)"/>
  <g id="g9312">
   <path d="m49.866364,3.135986l-47.34375,107.625l296.499969,0l47.34375,-107.625l-296.499969,0z" id="path4749" stroke-dashoffset="0" stroke-miterlimit="4" stroke-linejoin="round" stroke-width="3.543307" fill-rule="nonzero" fill="url(#linearGradient9274)"/>
   <g id="g9298">
    <g id="g9282">
     <path d="m50.312164,48.421082l40.194214,-18.130737" id="path7440" stroke-miterlimit="4" stroke-width="3.543307" stroke="url(#linearGradient9228)" fill-rule="evenodd" fill-opacity="0.75" fill="none"/>
     <path d="m85.352142,40.909088l92.505157,-0.088379" id="path7442" stroke-miterlimit="4" stroke-width="3.543307" stroke="url(#linearGradient9230)" fill-rule="evenodd" fill-opacity="0.75" fill="none"/>
    </g>
    <g id="g9294">
     <path d="m190.896362,34.955872l6.367432,-14.486145l92.165405,-0.016449l4.102295,-9.59967l22.574463,16.941956" id="path7444" stroke-miterlimit="4" stroke-width="3.543307" stroke="url(#linearGradient9226)" fill-rule="evenodd" fill-opacity="0.75" fill="none"/>
     <path d="m281.515991,34.102264l-4.493408,10.252472l4.491577,-2.056458l0.001831,-8.196014z" id="path7446" stroke-miterlimit="4" stroke-width="3.543307" fill-rule="evenodd" fill="url(#linearGradient9236)"/>
    </g>
    <g id="g9286">
     <path d="m32.302399,89.2565l40.381714,-18.161957" id="path9238" stroke-miterlimit="4" stroke-width="3.543307" stroke="url(#linearGradient9246)" fill-rule="evenodd" fill-opacity="0.75" fill="none"/>
     <path d="m67.342316,81.650757l92.505249,0.005371" id="path9240" stroke-miterlimit="4" stroke-width="3.543307" stroke="url(#linearGradient9248)" fill-rule="evenodd" fill-opacity="0.75" fill="none"/>
    </g>
    <g id="g9290">
     <path d="m172.886475,75.79129l6.367432,-14.486115l92.165527,-0.016479l4.102295,-9.59964l22.574463,16.941925" id="path9242" stroke-miterlimit="4" stroke-width="3.543307" stroke="url(#linearGradient9250)" fill-rule="evenodd" fill-opacity="0.75" fill="none"/>
     <path d="m263.506226,74.937683l-4.493408,10.252472l4.491577,-1.837708l0.001831,-8.414764z" id="path9244" stroke-miterlimit="4" stroke-width="3.543307" fill-rule="evenodd" fill="url(#linearGradient9252)"/>
    </g>
   </g>
   <path d="m49.866364,3.135986l-47.34375,107.625l296.499969,0l47.34375,-107.625l-296.499969,0zm243.000092,5.1875l24.218628,18.0625l-40.03125,17.90625l4.46875,-10.1875l-92.1875,0l6.75,-15.40625l92.218872,0l4.5625,-10.375zm-203.062592,20.40625l-4.53125,10.375l92.187469,0l-6.78125,15.40625l-92.187469,0l-4.5,10.1875l-24.28125,-17.90625l40.09375,-18.0625zm185.093719,20.4375l24.218872,18.0625l-40.031372,17.90625l4.46875,-10.21875l-92.1875,0l6.78125,-15.40625l92.1875,0l4.5625,-10.34375zm-203.031219,20.40625l-4.5625,10.34375l92.1875,0l-6.75,15.4375l-92.21875,0l-4.46875,10.1875l-24.3125,-17.90625l40.125,-18.0625z" id="rect1948" stroke-dashoffset="0" stroke-miterlimit="4" stroke-linejoin="round" stroke-width="3.543307" fill-rule="nonzero" fill="url(#linearGradient9271)"/>
  </g>
  <path d="m2.616364,109.917236l-0.90625,0.875l0,51.3125l0.90625,0.875l296.312531,0l0.875,-0.875l0,-51.3125l-0.875,-0.875l-296.312531,0zm0.875,1.78125l294.531281,0l0,49.5l-294.531281,0l0,-49.5zm45.78125,-109.46875l-0.25,0.53125l-47,107.125l1.625,0.71875l46.78125,-106.59375l295.000031,0.03125l-0.09375,50.375l-47.1875,107.03125l1.625,0.71875l47.28125,-107.25l0.0625,-0.1875l0,-0.1875l0.0625,-52.28125l-297.343781,-0.03125l-0.5625,0zm296.218781,0.34375l-47.59375,108.375l1.625,0.71875l47.59375,-108.375l-1.625,-0.71875z" id="rect10242" stroke-dashoffset="0" stroke-miterlimit="4" stroke-linejoin="bevel" stroke-linecap="square" stroke-width="1.77165" fill="black"/>
 </g>
</svg>